HIERARCHY
ROOT joint_0
{
	OFFSET 0.000000 0.000000 0.000000
	CHANNELS 6 Xposition Yposition Zposition Zrotation Yrotation Xrotation 
	JOINT joint_1
	{
		OFFSET 14.113007 -2.961990 123.953979
		CHANNELS 3 Zrotation Yrotation Xrotation
		JOINT joint_2
		{
			OFFSET 0.764000 -2.434006 113.871948
			CHANNELS 3 Zrotation Yrotation Xrotation
			JOINT joint_3
			{
				OFFSET 0.186996 -2.169998 113.753052
				CHANNELS 3 Zrotation Yrotation Xrotation
				JOINT joint_4
				{
					OFFSET 16.096001 -2.720001 160.853027
					CHANNELS 3 Zrotation Yrotation Xrotation
					JOINT joint_5
					{
						OFFSET 34.392006 -0.188995 92.567017
						CHANNELS 3 Zrotation Yrotation Xrotation
						End Site
						{
							OFFSET 0.000000 0.000000 0.000000
						}
					}
				}
				JOINT joint_6
				{
					OFFSET 9.183998 -36.684006 89.597046
					CHANNELS 3 Zrotation Yrotation Xrotation
					JOINT joint_7
					{
						OFFSET 0.486000 -164.365997 -28.984009
						CHANNELS 3 Zrotation Yrotation Xrotation
						JOINT joint_8
						{
							OFFSET 38.899002 -34.967010 -291.651978
							CHANNELS 3 Zrotation Yrotation Xrotation
							JOINT joint_9
							{
								OFFSET 41.714005 -45.890991 -258.857056
								CHANNELS 3 Zrotation Yrotation Xrotation
								End Site
								{
									OFFSET 0.000000 0.000000 0.000000
								}
							}
						}
					}
				}
				JOINT joint_10
				{
					OFFSET 8.867004 33.650002 90.817993
					CHANNELS 3 Zrotation Yrotation Xrotation
					JOINT joint_11
					{
						OFFSET 0.018997 164.299999 -29.368042
						CHANNELS 3 Zrotation Yrotation Xrotation
						JOINT joint_12
						{
							OFFSET 29.440994 30.887997 -293.216919
							CHANNELS 3 Zrotation Yrotation Xrotation
							JOINT joint_13
							{
								OFFSET 46.174011 54.490005 -256.422058
								CHANNELS 3 Zrotation Yrotation Xrotation
								End Site
								{
									OFFSET 0.000000 0.000000 0.000000
								}
							}
						}
					}
				}
			}
		}
	}
	JOINT joint_14
	{
		OFFSET -2.264000 -89.466995 -116.150024
		CHANNELS 3 Zrotation Yrotation Xrotation
		JOINT joint_15
		{
			OFFSET -16.400993 -17.452988 -493.781982
			CHANNELS 3 Zrotation Yrotation Xrotation
			JOINT joint_16
			{
				OFFSET -50.497004 -13.404022 -424.754013
				CHANNELS 3 Zrotation Yrotation Xrotation
				JOINT joint_17
				{
					OFFSET 198.546007 -19.341003 -89.309000
					CHANNELS 3 Zrotation Yrotation Xrotation
					End Site
					{
						OFFSET 0.000000 0.000000 0.000000
					}
				}
			}
		}
	}
	JOINT joint_18
	{
		OFFSET -0.867996 96.016006 -110.817993
		CHANNELS 3 Zrotation Yrotation Xrotation
		JOINT joint_19
		{
			OFFSET -10.130997 24.658998 -493.645020
			CHANNELS 3 Zrotation Yrotation Xrotation
			JOINT joint_20
			{
				OFFSET -48.871004 19.434999 -424.714005
				CHANNELS 3 Zrotation Yrotation Xrotation
				JOINT joint_21
				{
					OFFSET 195.579996 24.926001 -94.327003
					CHANNELS 3 Zrotation Yrotation Xrotation
					End Site
					{
						OFFSET 0.000000 0.000000 0.000000
					}
				}
			}
		}
	}
}
MOTION
Frames: 7
Frame Time: 0.016667
62.512000 -140.502000 1143.609010 1.418764 -4.054819 -1.802922 -0.394942 -0.628392 2.807380 -0.369151 0.072399 -0.583577 -0.372680 -0.049808 0.380467 -0.220702 0.248499 0.590058 0.000000 0.000000 0.000000 -0.298139 0.963041 0.935415 -0.129323 0.929147 0.391943 -0.267234 0.726015 -0.860208 0.000000 0.000000 0.000000 -1.344991 0.657785 -0.182045 0.131737 0.921513 0.724009 -0.099632 0.109603 -0.682592 0.000000 0.000000 0.000000 -0.978412 1.471808 3.069185 -0.814546 -0.356859 -0.199706 -0.824948 0.416940 -0.328951 0.000000 0.000000 0.000000 -2.828986 1.040493 0.407042 -2.853472 0.290373 -0.300265 -2.733018 0.377437 -1.358263 0.000000 0.000000 0.000000 
62.948000 -140.315990 1143.776980 1.422268 -3.726353 -1.779490 -0.422256 -0.612410 2.908981 -0.394114 0.084926 -0.636289 -0.398993 -0.102004 0.422556 -0.233803 0.148899 0.624825 0.000000 0.000000 0.000000 -1.016208 0.880545 0.840551 -0.087216 0.713309 0.467560 -0.258123 0.620686 -0.921525 0.000000 0.000000 0.000000 -0.815321 0.747100 -0.460992 0.126436 0.914569 1.019636 -0.172001 -0.066384 -0.876552 0.000000 0.000000 0.000000 -0.978515 1.103827 3.021102 -0.832538 -0.289662 -0.132500 -0.828905 0.335457 -0.338688 0.000000 0.000000 0.000000 -2.824161 0.670089 0.413227 -2.825721 0.339606 -0.370064 -2.716242 0.387213 -1.351444 0.000000 0.000000 0.000000 
63.798000 -140.065000 1144.078000 1.417263 -3.240998 -1.740808 -0.464182 -0.557086 3.040379 -0.433585 0.094099 -0.707363 -0.440171 -0.173103 0.481115 -0.251942 -0.067747 0.672330 0.000000 0.000000 0.000000 -1.983939 0.782972 0.665225 -0.020846 0.434612 0.611758 -0.223098 0.409191 -0.938425 0.000000 0.000000 0.000000 -0.116590 0.909366 -0.766151 0.106720 0.947556 1.365135 -0.293180 -0.372261 -1.188185 0.000000 0.000000 0.000000 -0.972320 0.589918 2.946350 -0.850475 -0.231024 -0.036858 -0.828956 0.233467 -0.348695 0.000000 0.000000 0.000000 -2.819383 0.156607 0.417170 -2.791347 0.372693 -0.462544 -2.695033 0.397336 -1.342554 0.000000 0.000000 0.000000 
65.587000 -140.008000 1144.487060 1.362971 -2.625163 -1.685266 -0.539668 -0.391962 3.124276 -0.509463 0.071077 -0.756065 -0.515789 -0.171707 0.514703 -0.242179 -0.837162 0.641890 0.000000 0.000000 0.000000 -2.494645 0.834498 0.280732 0.060173 0.384154 0.823449 -0.050369 -0.204270 -0.539835 0.000000 0.000000 0.000000 0.291571 1.313242 -0.560004 0.013410 1.262022 1.333463 -0.549407 -1.119731 -1.731157 0.000000 0.000000 0.000000 -0.944951 0.070117 2.862335 -0.840504 -0.358690 0.046736 -0.811782 0.187856 -0.345529 0.000000 0.000000 0.000000 -2.828837 -0.337162 0.407397 -2.785253 0.180253 -0.493390 -2.678457 0.496712 -1.347478 0.000000 0.000000 0.000000 
68.479000 -140.231990 1145.108030 1.257714 -1.817820 -1.608467 -0.683709 0.083126 3.130146 -0.662175 -0.029835 -0.778183 -0.663843 -0.015384 0.511209 -0.189312 -2.823078 0.493940 0.000000 0.000000 0.000000 -2.185939 1.135379 -0.507284 0.188808 0.721232 1.161905 0.408174 -1.722267 0.613207 0.000000 0.000000 0.000000 0.225033 2.194818 0.616164 -0.254235 2.109343 0.515069 -1.114274 -3.029611 -2.658336 0.000000 0.000000 0.000000 -0.893217 -0.450617 2.759966 -0.795179 -0.802808 0.117083 -0.776401 0.248357 -0.323886 0.000000 0.000000 0.000000 -2.887071 -0.785680 0.369076 -2.854491 -0.421742 -0.388154 -2.688315 0.804902 -1.391935 0.000000 0.000000 0.000000 
72.311000 -140.649990 1145.836060 1.104647 -0.902450 -1.514678 -0.863143 0.717638 3.062615 -0.856462 -0.162859 -0.773579 -0.852019 0.176609 0.484759 -0.127314 -5.410470 0.352024 0.000000 0.000000 0.000000 -1.462800 1.596592 -1.406843 0.334151 1.291125 1.453075 1.015670 -3.687348 2.147439 0.000000 0.000000 0.000000 0.023735 3.326850 2.141865 -0.578851 3.229977 -0.581098 -1.794458 -5.492522 -3.718533 0.000000 0.000000 0.000000 -0.819970 -0.949101 2.643185 -0.722189 -1.440708 0.176544 -0.724811 0.380877 -0.287934 0.000000 0.000000 0.000000 -2.959317 -1.185816 0.312497 -2.954373 -1.257690 -0.210071 -2.704224 1.224513 -1.453503 0.000000 0.000000 0.000000 
77.110000 -141.251010 1146.327030 0.871050 -0.092254 -1.419246 -0.994973 0.992232 2.934817 -0.996620 -0.210213 -0.740827 -0.990206 0.223088 0.448598 -0.080312 -7.052428 0.285036 0.000000 0.000000 0.000000 -0.708546 2.094413 -1.897424 0.385447 1.920082 1.428438 1.442731 -4.904647 3.400199 0.000000 0.000000 0.000000 -0.168374 4.192386 3.116285 -0.729448 4.124403 -1.144920 -2.171115 -6.731300 -4.566564 0.000000 0.000000 0.000000 -0.720732 -1.295272 2.552912 -0.617033 -2.062243 0.189872 -0.648075 0.525687 -0.239472 0.000000 0.000000 0.000000 -2.956711 -1.447047 0.265827 -2.979661 -1.988112 -0.088930 -2.670123 1.503698 -1.473142 0.000000 0.000000 0.000000 
